<svg preserveAspectRatio="none" overflow="visible" style="display: block;" width="55.3333" height="55.3333" viewBox="0 0 55.3333 55.3333" fill="none" xmlns="http://www.w3.org/2000/svg">
<path id="Vector" d="M34.3333 4.33333C34.3333 3.44928 33.9821 2.60143 33.357 1.97631C32.7319 1.35119 31.8841 1 31 1H24.3333C23.4493 1 22.6014 1.35119 21.9763 1.97631C21.3512 2.60143 21 3.44928 21 4.33333V21H4.33333C3.44928 21 2.60143 21.3512 1.97631 21.9763C1.35119 22.6014 1 23.4493 1 24.3333V31C1 31.8841 1.35119 32.7319 1.97631 33.357C2.60143 33.9821 3.44928 34.3333 4.33333 34.3333H21V51C21 51.8841 21.3512 52.7319 21.9763 53.357C22.6014 53.9821 23.4493 54.3333 24.3333 54.3333H31C31.8841 54.3333 32.7319 53.9821 33.357 53.357C33.9821 52.7319 34.3333 51.8841 34.3333 51V34.3333H51C51.8841 34.3333 52.7319 33.9821 53.357 33.357C53.9821 32.7319 54.3333 31.8841 54.3333 31V24.3333C54.3333 23.4493 53.9821 22.6014 53.357 21.9763C52.7319 21.3512 51.8841 21 51 21H34.3333V4.33333Z" stroke="#D7CBFE" stroke-width="2"/>
</svg>
